<mxfile host="app.diagrams.net" modified="2024-01-29T06:28:54.785Z" agent="Mozilla/5.0 (Windows NT 10.0; Win64; x64) AppleWebKit/537.36 (KHTML, like Gecko) Chrome/121.0.0.0 Safari/537.36 Edg/121.0.0.0" version="23.0.2" etag="yzwcQr7Y8_DCitVKrDdd" type="github">
  <diagram name="PÃ¡gina-1" id="Emq2S2zUMF0T5vlS-MBI">
    <mxGraphModel>
      <root>
        <mxCell id="0" />
        <mxCell id="1" parent="0" />
      </root>
    </mxGraphModel>
  </diagram>
</mxfile>
